<?xml version="1.0" encoding="utf-8"?>
<!-- Generator: Adobe Illustrator 19.0.0, SVG Export Plug-In . SVG Version: 6.00 Build 0)  -->
<svg version="1.1" id="Слой_1" xmlns="http://www.w3.org/2000/svg" xmlns:xlink="http://www.w3.org/1999/xlink" x="0px" y="0px"
	 viewBox="0 0 78 26" style="enable-background:new 0 0 78 26;" xml:space="preserve">
<style type="text/css">
	.st0{fill:#FFFFFF;}
</style>
<g>
	
		<image style="overflow:visible;opacity:0.75;" width="30" height="30" id="XMLID_26_" xlink:href="3628E6CA.png"  transform="matrix(1 0 0 1 50 -2)">
	</image>
	<g id="XMLID_15_">
		<path id="XMLID_25_" class="st0" d="M75.5,1H77v17.3c0,2.1-2.4,3.8-5.3,3.8s-5.3-1.7-5.3-3.8s2.4-3.8,5.3-3.8
			c1.5,0,2.8,0.4,3.8,1.1V7l-12,2.7v11.6c0,2.1-2.4,3.8-5.3,3.8S53,23.3,53,21.3s2.3-3.8,5.3-3.8c1.5,0,2.8,0.4,3.8,1.1V4
			C62,4,75.5,1,75.5,1z"/>
	</g>
</g>
<g>
	
		<image style="overflow:visible;opacity:0.75;" width="31" height="30" id="XMLID_22_" xlink:href="3628E6CD.png"  transform="matrix(1 0 0 1 23 -2)">
	</image>
	<g id="XMLID_13_">
		<path id="XMLID_21_" class="st0" d="M51,11.4c0,3.3-1.7,6.2-4.4,8.1c0,0.2-0.1,0.5-0.1,0.7c0,1.7,1.4,3.3,3,4.1V25
			c-3-0.1-6.1-0.6-8.6-3.3c-0.6,0.1-1.2,0.1-1.9,0.1c-6.6,0-12-4.7-12-10.4S32.4,1,39,1C45.6,1,51,5.7,51,11.4z"/>
	</g>
</g>
<g>
	
		<image style="overflow:visible;opacity:0.75;" width="31" height="30" id="XMLID_18_" xlink:href="3628E6CF.png"  transform="matrix(1 0 0 1 -2 -2)">
	</image>
	<g id="XMLID_11_">
		<path id="XMLID_17_" class="st0" d="M24.5,20.2l-10.8-9.3c0.5-0.9,0.8-2,0.8-3.2c0-3.7-3-6.7-6.7-6.7c-0.7,0-1.3,0.1-2,0.3
			l3.9,3.9c0.6,0.6,0.6,1.5,0,2.1L7.3,9.7c-0.6,0.6-1.5,0.6-2.1,0L1.3,5.8C1.1,6.4,1,7.1,1,7.8c0,3.7,3,6.7,6.8,6.7
			c1.1,0,2.2-0.3,3.2-0.8l9.3,10.8c0.5,0.6,1.5,0.7,2,0.1l2.4-2.4C25.2,21.6,25.1,20.7,24.5,20.2L24.5,20.2z"/>
	</g>
</g>
</svg>
